<!-- Generated by IcoMoon.io -->
<svg version="1.1" xmlns="http://www.w3.org/2000/svg" width="384" height="448" viewBox="0 0 384 448">
<title></title>
<g id="icomoon-ignore">
</g>
<path d="M280 232c0 2.25-1 4.25-2.5 6l-79.75 79.75c-1.75 1.5-3.75 2.25-5.75 2.25s-4-0.75-5.75-2.25l-80-80c-2.25-2.5-3-5.75-1.75-8.75s4.25-5 7.5-5h48v-88c0-4.5 3.5-8 8-8h48c4.5 0 8 3.5 8 8v88h48c4.5 0 8 3.5 8 8zM192 88c-75 0-136 61-136 136s61 136 136 136 136-61 136-136-61-136-136-136zM384 224c0 106-86 192-192 192s-192-86-192-192 86-192 192-192v0c106 0 192 86 192 192z"></path>
</svg>
