<!-- Generated by IcoMoon.io -->
<svg version="1.1" xmlns="http://www.w3.org/2000/svg" width="352" height="448" viewBox="0 0 352 448">
<title></title>
<g id="icomoon-ignore">
</g>
<path d="M324.5 330.5c0 6.25-2.5 12.5-7 17l-34 34c-4.5 4.5-10.75 7-17 7s-12.5-2.5-17-7l-73.5-73.5-73.5 73.5c-4.5 4.5-10.75 7-17 7s-12.5-2.5-17-7l-34-34c-4.5-4.5-7-10.75-7-17s2.5-12.5 7-17l73.5-73.5-73.5-73.5c-4.5-4.5-7-10.75-7-17s2.5-12.5 7-17l34-34c4.5-4.5 10.75-7 17-7s12.5 2.5 17 7l73.5 73.5 73.5-73.5c4.5-4.5 10.75-7 17-7s12.5 2.5 17 7l34 34c4.5 4.5 7 10.75 7 17s-2.5 12.5-7 17l-73.5 73.5 73.5 73.5c4.5 4.5 7 10.75 7 17z"></path>
</svg>
