<!-- Generated by IcoMoon.io -->
<svg version="1.1" xmlns="http://www.w3.org/2000/svg" width="384" height="448" viewBox="0 0 384 448">
<title></title>
<g id="icomoon-ignore">
</g>
<path d="M304 240v-32c0-8.75-7.25-16-16-16h-64v-64c0-8.75-7.25-16-16-16h-32c-8.75 0-16 7.25-16 16v64h-64c-8.75 0-16 7.25-16 16v32c0 8.75 7.25 16 16 16h64v64c0 8.75 7.25 16 16 16h32c8.75 0 16-7.25 16-16v-64h64c8.75 0 16-7.25 16-16zM384 224c0 106-86 192-192 192s-192-86-192-192 86-192 192-192 192 86 192 192z"></path>
</svg>
